<svg width="118" height="59" viewBox="0 0 118 59" fill="none" xmlns="http://www.w3.org/2000/svg">
<path d="M0 44.8V-1.52588e-05H16.704C20.3307 -1.52588e-05 23.3173 0.618652 25.664 1.85599C28.0107 3.09332 29.76 4.75732 30.912 6.84798C32.064 8.89599 32.64 11.1787 32.64 13.696C32.64 16.0853 32.0853 18.3253 30.976 20.416C29.8667 22.464 28.1173 24.128 25.728 25.408C23.3813 26.6453 20.352 27.264 16.64 27.264H8.64V44.8H0ZM23.232 44.8L14.016 25.088H23.36L33.088 44.8H23.232ZM8.64 20.992H16.192C18.7947 20.992 20.7147 20.352 21.952 19.072C23.1893 17.792 23.808 16.1067 23.808 14.016C23.808 11.9253 23.1893 10.2827 21.952 9.08799C20.7573 7.85065 18.8373 7.23199 16.192 7.23199H8.64V20.992ZM44.7735 45.568C41.5308 45.568 38.6508 44.8853 36.1335 43.52C33.6588 42.112 31.7175 40.1707 30.3095 37.696C28.9442 35.1787 28.2615 32.2773 28.2615 28.992C28.2615 25.6213 28.9442 22.656 30.3095 20.096C31.7175 17.4933 33.6588 15.4667 36.1335 14.016C38.6082 12.5227 41.4882 11.776 44.7735 11.776C47.9735 11.776 50.7682 12.48 53.1575 13.888C55.5468 15.296 57.4028 17.1947 58.7255 19.584C60.0482 21.9733 60.7095 24.6827 60.7095 27.712C60.7095 28.1387 60.7095 28.6293 60.7095 29.184C60.7095 29.696 60.6668 30.2293 60.5815 30.784H34.4055V25.536H52.0055C51.8775 23.4453 51.1308 21.8027 49.7655 20.608C48.4428 19.4133 46.7788 18.816 44.7735 18.816C43.3228 18.816 41.9788 19.1573 40.7415 19.84C39.5042 20.48 38.5228 21.4827 37.7975 22.848C37.1148 24.2133 36.7735 25.9413 36.7735 28.032V29.888C36.7735 31.6373 37.0935 33.1733 37.7335 34.496C38.4162 35.776 39.3548 36.7787 40.5495 37.504C41.7442 38.1867 43.1308 38.528 44.7095 38.528C46.2882 38.528 47.5895 38.1867 48.6135 37.504C49.6802 36.8213 50.4695 35.9467 50.9815 34.88H59.8135C59.2162 36.8853 58.2135 38.6987 56.8055 40.32C55.3975 41.9413 53.6695 43.2213 51.6215 44.16C49.5735 45.0987 47.2908 45.568 44.7735 45.568ZM66.2155 44.8L54.3755 12.544H63.4635L71.4635 36.672L79.4635 12.544H88.4875L76.7115 44.8H66.2155ZM88.899 58.88L96.707 41.216H94.787L81.859 12.544H91.267L100.483 33.344L108.803 12.544H117.955L98.051 58.88H88.899Z" fill="#0E0D0F"/>
</svg>
